HIERARCHY
ROOT hip
{
  OFFSET 0 0 0
  CHANNELS 6 Xposition Yposition Zposition Zrotation Yrotation Xrotation
  JOINT abdomen
  {
    OFFSET 0 20.6881 -0.73152
    CHANNELS 3 Zrotation Xrotation Yrotation
    JOINT chest
    {
      OFFSET 0 11.7043 -0.48768
      CHANNELS 3 Zrotation Xrotation Yrotation
      JOINT neck
      {
        OFFSET 0 22.1894 -2.19456
        CHANNELS 3 Zrotation Xrotation Yrotation
        JOINT head
        {
          OFFSET -0.24384 7.07133 1.2192
          CHANNELS 3 Zrotation Xrotation Yrotation
          JOINT leftEye
          {
            OFFSET 4.14528 8.04674 8.04672
            CHANNELS 3 Zrotation Xrotation Yrotation
            End Site
            {
              OFFSET 1 0 0
            }
          }
          JOINT rightEye
          {
            OFFSET -3.6576 8.04674 8.04672
            CHANNELS 3 Zrotation Xrotation Yrotation
            End Site
            {
              OFFSET 1 0 0
            }
          }
        }
      }
      JOINT rCollar
      {
        OFFSET -2.68224 19.2634 -4.8768
        CHANNELS 3 Zrotation Xrotation Yrotation
        JOINT rShldr
        {
          OFFSET -8.77824 -1.95073 1.46304
          CHANNELS 3 Zrotation Xrotation Yrotation
          JOINT rForeArm
          {
            OFFSET -28.1742 -1.7115 0.48768
            CHANNELS 3 Zrotation Xrotation Yrotation
            JOINT rHand
            {
              OFFSET -22.5879 0.773209 7.07136
              CHANNELS 3 Zrotation Xrotation Yrotation
              JOINT rThumb1
              {
                OFFSET -1.2192 -0.487915 3.41376
                CHANNELS 3 Zrotation Xrotation Yrotation
                JOINT rThumb2
                {
                  OFFSET -3.37035 -0.52449 3.41376
                  CHANNELS 3 Zrotation Xrotation Yrotation
                  End Site
                  {
                    OFFSET -1.78271 -1.18214 1.43049
                  }
                }
              }
              JOINT rIndex1
              {
                OFFSET -7.75947 0.938293 5.60832
                CHANNELS 3 Zrotation Xrotation Yrotation
                JOINT rIndex2
                {
                  OFFSET -2.54057 -0.884171 1.56538
                  CHANNELS 3 Zrotation Xrotation Yrotation
                  End Site
                  {
                    OFFSET -1.62519 -0.234802 1.16502
                  }
                }
              }
              JOINT rMid1
              {
                OFFSET -8.24714 1.18213 3.41376
                CHANNELS 3 Zrotation Xrotation Yrotation
                JOINT rMid2
                {
                  OFFSET -3.10165 -0.590103 1.0647
                  CHANNELS 3 Zrotation Xrotation Yrotation
                  End Site
                  {
                    OFFSET -2.48547 -0.328903 0.83742
                  }
                }
              }
              JOINT rRing1
              {
                OFFSET -8.82822 0.546677 1.51678
                CHANNELS 3 Zrotation Xrotation Yrotation
                JOINT rRing2
                {
                  OFFSET -2.60934 -0.819778 -0.0198488
                  CHANNELS 3 Zrotation Xrotation Yrotation
                  End Site
                  {
                    OFFSET -2.33842 -0.294052 0.168128
                  }
                }
              }
              JOINT rPinky1
              {
                OFFSET -8.27202 -0.0477905 -0.4584
                CHANNELS 3 Zrotation Xrotation Yrotation
                JOINT rPinky2
                {
                  OFFSET -1.82734 -0.647385 -0.700984
                  CHANNELS 3 Zrotation Xrotation Yrotation
                  End Site
                  {
                    OFFSET -1.69225 -0.51767 -0.607171
                  }
                }
              }
            }
          }
        }
      }
      JOINT lCollar
      {
        OFFSET 2.68224 19.2634 -4.8768
        CHANNELS 3 Zrotation Xrotation Yrotation
        JOINT lShldr
        {
          OFFSET 8.77824 -1.95073 1.46304
          CHANNELS 3 Zrotation Xrotation Yrotation
          JOINT lForeArm
          {
            OFFSET 28.1742 -1.7115 0.48768
            CHANNELS 3 Zrotation Xrotation Yrotation
            JOINT lHand
            {
              OFFSET 22.5879 0.773209 7.07136
              CHANNELS 3 Zrotation Xrotation Yrotation
              JOINT lThumb1
              {
                OFFSET 1.2192 -0.487915 3.41376
                CHANNELS 3 Zrotation Xrotation Yrotation
                JOINT lThumb2
                {
                  OFFSET 3.37035 -0.52449 3.41376
                  CHANNELS 3 Zrotation Xrotation Yrotation
                  End Site
                  {
                    OFFSET 1.78271 -1.18214 1.43049
                  }
                }
              }
              JOINT lIndex1
              {
                OFFSET 7.75947 0.938293 5.60832
                CHANNELS 3 Zrotation Xrotation Yrotation
                JOINT lIndex2
                {
                  OFFSET 2.54057 -0.884171 1.56538
                  CHANNELS 3 Zrotation Xrotation Yrotation
                  End Site
                  {
                    OFFSET 1.62519 -0.234802 1.16502
                  }
                }
              }
              JOINT lMid1
              {
                OFFSET 8.24714 1.18213 3.41376
                CHANNELS 3 Zrotation Xrotation Yrotation
                JOINT lMid2
                {
                  OFFSET 3.10165 -0.590103 1.0647
                  CHANNELS 3 Zrotation Xrotation Yrotation
                  End Site
                  {
                    OFFSET 2.48547 -0.328903 0.83742
                  }
                }
              }
              JOINT lRing1
              {
                OFFSET 8.82822 0.546677 1.51678
                CHANNELS 3 Zrotation Xrotation Yrotation
                JOINT lRing2
                {
                  OFFSET 2.60934 -0.819778 -0.0198488
                  CHANNELS 3 Zrotation Xrotation Yrotation
                  End Site
                  {
                    OFFSET 2.33842 -0.294052 0.168128
                  }
                }
              }
              JOINT lPinky1
              {
                OFFSET 8.27202 -0.0477905 -0.4584
                CHANNELS 3 Zrotation Xrotation Yrotation
                JOINT lPinky2
                {
                  OFFSET 1.82734 -0.647385 -0.700984
                  CHANNELS 3 Zrotation Xrotation Yrotation
                  End Site
                  {
                    OFFSET 1.69225 -0.51767 -0.607171
                  }
                }
              }
            }
          }
        }
      }
    }
  }
  JOINT rButtock
  {
    OFFSET -8.77824 4.35084 1.2192
    CHANNELS 3 Zrotation Xrotation Yrotation
    JOINT rThigh
    {
      OFFSET 0 -1.70687 -2.19456
      CHANNELS 3 Zrotation Xrotation Yrotation
      JOINT rShin
      {
        OFFSET 0 -36.8199 0.73152
        CHANNELS 3 Zrotation Xrotation Yrotation
        JOINT rFoot
        {
          OFFSET 0.73152 -45.1104 -5.12064
          CHANNELS 3 Zrotation Xrotation Yrotation
          End Site
          {
            OFFSET -1.1221 -3.69964 12.103
          }
        }
      }
    }
  }
  JOINT lButtock
  {
    OFFSET 8.77824 4.35084 1.2192
    CHANNELS 3 Zrotation Xrotation Yrotation
    JOINT lThigh
    {
      OFFSET 0 -1.70687 -2.19456
      CHANNELS 3 Zrotation Xrotation Yrotation
      JOINT lShin
      {
        OFFSET 0 -36.8199 0.73152
        CHANNELS 3 Zrotation Xrotation Yrotation
        JOINT lFoot
        {
          OFFSET -0.73152 -45.1104 -5.12064
          CHANNELS 3 Zrotation Xrotation Yrotation
          End Site
          {
            OFFSET 1.1221 -3.69964 12.103
          }
        }
      }
    }
  }
}
MOTION
Frames:	7
Frame Time:	0.00833333
-7.94021 84.8855 166.676 0.0 0.0 0.0 -0.188094 -0.00125239 -0.00538539 -0.0519273 -0.00198486 -0.00899612 -6.78734e-16 -1.59028e-15 2.48481e-17 -2.09345e-15 3.18055e-15 7.76503e-17 -0.0 0.0 0.0 -0.0 0.0 0.0 -3.49186e-16 4.27076e-18 1.49089e-16 -4.80306e-15 1.11816e-16 9.93923e-16 -1.25284e-13 4.41302e-14 1.27222e-14 -1.47644e-12 -1.62755e-14 3.81667e-14 -3.47568e-12 6.01107e-14 1.24042e-13 -6.00608e-12 1.04958e-13 2.13892e-13 -3.46839e-12 6.44062e-14 1.17681e-13 7.73091 5.47488 0.417314 -3.47491e-12 6.02318e-14 1.30403e-13 2.90554 0.965183 0.102902 -3.46401e-12 6.09275e-14 1.25632e-13 10.2786 0.731801 0.0259123 -3.47853e-12 6.0033e-14 1.33583e-13 2.22167 -0.733487 -0.20892 -3.46583e-16 4.27076e-18 -1.49089e-16 -1.03073e-14 2.17421e-16 -5.96354e-16 -1.31198e-13 -3.26007e-14 -3.18055e-15 -1.47214e-12 5.9859e-14 6.04305e-14 -3.47759e-12 5.71948e-14 1.24042e-13 -6.00012e-12 1.01778e-13 2.25819e-13 -3.4843e-12 6.20208e-14 1.39944e-13 -7.73091 5.47488 -0.417314 -3.47744e-12 5.77469e-14 1.27222e-13 -2.90554 0.965183 -0.102902 -3.48658e-12 5.79457e-14 1.26427e-13 -10.2786 0.731801 -0.0259123 -3.47893e-12 5.56597e-14 1.145e-13 -2.22167 -0.733487 0.20892 -2.03217e-16 0.0 -3.88251e-19 0.336785 -2.83766 -0.0337254 -0.0064643 -0.412349 -0.0567837 -0.478926 3.24961 0.120281 2.03217e-16 0.0 3.88251e-19 -0.623485 -3.58113 0.051656 0.0043159 0.934361 0.0368606 0.481681 2.6464 -0.108449
-7.8148 81.3769 161.013 -177.659 5.6732 -153.484 -0.0753417 -1.3282 -0.914482 0.0464394 -1.89282 -0.189675 0.278554 -1.93547 0.610217 -0.424558 -0.546697 1.14147 -0.0 0.0 0.0 -0.0 0.0 0.0 -1.3636e-14 -2.12532e-14 -1.44468e-15 21.6516 15.9018 -1.24086 -13.9944 -11.1111 14.2961 0.00571305 -1.67788 -0.235447 -1.52889e-10 5.26201e-11 1.2616e-10 -2.6602e-10 9.31443e-11 2.18682e-10 -1.52885e-10 5.26243e-11 1.26152e-10 7.73091 5.47488 0.417314 -1.52888e-10 5.26176e-11 1.26164e-10 2.90554 0.965183 0.102902 -1.52879e-10 5.26223e-11 1.26162e-10 10.2786 0.731801 0.0259123 -1.52893e-10 5.26219e-11 1.26169e-10 2.22167 -0.733487 -0.20892 -1.36617e-14 -2.12558e-14 -1.68734e-15 -19.0702 22.5581 -2.19559 10.3526 -7.20695 -12.5906 -0.0935079 6.82122 -0.934701 -1.79987e-10 1.17006e-10 2.43356e-11 -3.10359e-10 2.04987e-10 4.62753e-11 -1.79993e-10 1.17012e-10 2.43479e-11 -7.73091 5.47488 -0.417314 -1.79986e-10 1.1701e-10 2.43388e-11 -2.90554 0.965183 -0.102902 -1.79995e-10 1.1701e-10 2.43367e-11 -10.2786 0.731801 -0.0259123 -1.79989e-10 1.17009e-10 2.43259e-11 -2.22167 -0.733487 0.20892 -2.03217e-16 0.0 -3.88251e-19 1.49501 -21.4517 1.16014 -0.017669 12.5089 0.104524 -0.640584 0.959632 -3.58225 2.03217e-16 0.0 3.88251e-19 -1.63537 -11.3491 -1.49712 -0.111087 11.2246 -0.252751 1.71919 -8.37733 5.56923
-7.79681 81.5183 160.25 -177.787 5.7744 -153.367 0.0162817 -2.70369 -1.85795 0.129446 -3.88752 -0.378058 0.619286 -3.96495 1.2549 -0.858777 -1.15936 2.34124 -0.0 0.0 0.0 -0.0 0.0 0.0 -2.8028e-14 -4.66105e-14 -1.08709e-16 45.4517 32.7697 -2.96967 -22.7942 -20.6689 31.1387 -0.00328527 -3.4587 -0.486025 -3.2542e-10 1.3456e-10 2.34173e-10 -5.65985e-10 2.36967e-10 4.05993e-10 -3.25419e-10 1.34564e-10 2.34164e-10 7.73091 5.47488 0.417314 -3.25418e-10 1.34555e-10 2.34175e-10 2.90554 0.965183 0.102902 -3.25412e-10 1.34564e-10 2.34175e-10 10.2786 0.731801 0.0259123 -3.25424e-10 1.34564e-10 2.34182e-10 2.22167 -0.733487 -0.20892 -2.80839e-14 -4.66159e-14 -2.91965e-16 -36.6479 46.2727 -5.89793 17.9904 -13.7846 -26.6517 0.0563532 13.9515 -1.95774 -3.46367e-10 2.42848e-10 7.11844e-11 -5.96684e-10 4.24867e-10 1.31056e-10 -3.46372e-10 2.42855e-10 7.11929e-11 -7.73091 5.47488 -0.417314 -3.46364e-10 2.42856e-10 7.11878e-11 -2.90554 0.965183 -0.102902 -3.46373e-10 2.42854e-10 7.11841e-11 -10.2786 0.731801 -0.0259123 -3.46369e-10 2.42855e-10 7.11745e-11 -2.22167 -0.733487 0.20892 -2.03217e-16 0.0 -3.88251e-19 3.85224 -41.0447 2.9704 -0.116099 26.2347 0.302743 -1.13967 -1.53203 -7.45116 2.03217e-16 0.0 3.88251e-19 -3.17176 -19.5972 -3.25537 -0.111632 22.1661 -0.591943 5.51435 -19.7127 12.1611
-7.81406 81.6176 159.468 -177.928 5.6633 -153.344 0.023631 -3.97805 -2.73854 0.207246 -5.67427 -0.553435 0.959861 -5.80377 1.83904 -1.20834 -1.63749 3.42567 -0.0 0.0 0.0 -0.0 0.0 0.0 -4.02095e-14 -6.3768e-14 -4.63223e-15 67.8627 47.5932 -5.31281 -25.7973 -24.7773 47.5564 -0.0243658 -5.03331 -0.70877 -4.51716e-10 1.5774e-10 3.78233e-10 -7.86049e-10 2.79223e-10 6.5562e-10 -4.51717e-10 1.57744e-10 3.78222e-10 7.73091 5.47488 0.417314 -4.51713e-10 1.57732e-10 3.78231e-10 2.90554 0.965183 0.102902 -4.51709e-10 1.57745e-10 3.78234e-10 10.2786 0.731801 0.0259123 -4.51721e-10 1.57745e-10 3.7824e-10 2.22167 -0.733487 -0.20892 -4.02919e-14 -6.37758e-14 -4.76384e-15 -45.239 66.9446 -15.6983 21.9657 -17.4106 -39.6083 0.425002 20.4411 -2.97152 -5.33007e-10 3.50904e-10 7.27586e-11 -9.19077e-10 6.14758e-10 1.38374e-10 -5.3301e-10 3.50912e-10 7.27639e-11 -7.73091 5.47488 -0.417314 -5.33002e-10 3.50915e-10 7.2762e-11 -2.90554 0.965183 -0.102902 -5.33011e-10 3.50913e-10 7.27573e-11 -10.2786 0.731801 -0.0259123 -5.33009e-10 3.50914e-10 7.27486e-11 -2.22167 -0.733487 0.20892 -2.03217e-16 0.0 -3.88251e-19 7.95265 -58.5353 6.34436 -0.305039 38.3503 0.535168 -1.84746 -3.54839 -11.0068 2.03217e-16 0.0 3.88251e-19 -5.05108 -26.8066 -5.05059 0.0162274 31.8016 -0.961869 11.4108 -29.119 19.2569
-7.82605 81.6992 158.705 -178.031 5.2023 -153.401 -0.0990077 -5.00283 -3.45721 0.296252 -6.94133 -0.694147 1.21478 -7.16836 2.26421 -1.39868 -1.78208 4.22024 -0.0 0.0 0.0 -0.0 0.0 0.0 -4.6865e-14 -6.04261e-14 -2.38045e-14 84.3882 57.4248 -7.65639 -26.3308 -24.3145 58.1833 -0.0457451 -6.09269 -0.859547 -4.62424e-10 3.40208e-11 6.12406e-10 -8.06358e-10 6.75645e-11 1.06103e-09 -4.62426e-10 3.40248e-11 6.12394e-10 7.73091 5.47488 0.417314 -4.62421e-10 3.40119e-11 6.12403e-10 2.90554 0.965183 0.102902 -4.62418e-10 3.4026e-11 6.12407e-10 10.2786 0.731801 0.0259123 -4.62429e-10 3.40268e-11 6.12413e-10 2.22167 -0.733487 -0.20892 -4.69644e-14 -6.04352e-14 -2.39039e-14 -26.0347 79.1309 -47.5842 23.4558 -18.1137 -47.9312 0.858839 25.3489 -3.81758 -7.70295e-10 4.14496e-10 -3.88537e-11 -1.33164e-09 7.29676e-10 -4.79636e-11 -7.70298e-10 4.14505e-10 -3.88505e-11 -7.73091 5.47488 -0.417314 -7.7029e-10 4.14509e-10 -3.88505e-11 -2.90554 0.965183 -0.102902 -7.70298e-10 4.14506e-10 -3.88552e-11 -10.2786 0.731801 -0.0259123 -7.70297e-10 4.14509e-10 -3.88632e-11 -2.22167 -0.733487 0.20892 -2.03217e-16 0.0 -3.88251e-19 14.6915 -70.8197 12.6948 -0.513319 46.4415 0.746482 -2.41517 -4.46111 -13.7403 2.03217e-16 0.0 3.88251e-19 -6.75009 -31.4919 -6.51221 0.194579 38.1752 -1.28381 17.2001 -34.9515 25.2918
-7.86356 81.7735 158.138 -178.443 4.984 -153.047 -0.36492 -5.71087 -3.95168 0.417083 -7.45838 -0.786646 1.31035 -7.90839 2.46759 -1.38224 -1.45882 4.61723 -0.0 0.0 0.0 -0.0 0.0 0.0 -4.64154e-14 -2.81985e-14 -7.35472e-14 90.2567 60.4276 -7.84261 -26.2442 -22.9183 60.4728 -0.0550846 -6.46729 -0.913104 -2.76798e-10 -4.13451e-10 1.06505e-09 -4.87693e-10 -7.03298e-10 1.84431e-09 -2.76798e-10 -4.13447e-10 1.06503e-09 7.73091 5.47488 0.417314 -2.76795e-10 -4.1346e-10 1.06504e-09 2.90554 0.965183 0.102902 -2.76793e-10 -4.13447e-10 1.06505e-09 10.2786 0.731801 0.0259123 -2.76801e-10 -4.13446e-10 1.06505e-09 2.22167 -0.733487 -0.20892 -4.65159e-14 -2.82075e-14 -7.36416e-14 3.32399 80.0859 -82.3015 23.477 -17.4107 -49.3008 1.13832 28.0168 -4.31048 -1.13514e-09 4.22952e-10 -3.39943e-10 -1.96894e-09 7.52706e-10 -5.57568e-10 -1.13514e-09 4.22959e-10 -3.3994e-10 -7.73091 5.47488 -0.417314 -1.13513e-09 4.22964e-10 -3.3994e-10 -2.90554 0.965183 -0.102902 -1.13514e-09 4.2296e-10 -3.39944e-10 -10.2786 0.731801 -0.0259123 -1.13514e-09 4.22963e-10 -3.39951e-10 -2.22167 -0.733487 0.20892 -2.03217e-16 0.0 -3.88251e-19 21.4319 -75.9961 19.939 -0.593127 48.8029 0.806882 -2.47717 -3.82045 -15.3562 2.03217e-16 0.0 3.88251e-19 -7.6197 -32.7408 -7.1763 0.274575 39.9594 -1.42448 19.8664 -36.8065 28.0162
-7.94501 81.8279 157.293 -178.855 4.72 -152.908 -0.72471 -6.1919 -4.28477 0.563606 -7.44082 -0.84408 1.28215 -8.20109 2.5105 -1.22251 -0.802001 4.73017 -0.0 0.0 0.0 -0.0 0.0 0.0 -4.08606e-14 2.46529e-14 -1.44647e-13 87.8582 58.5679 -5.85378 -25.6553 -21.6461 57.206 -0.0529987 -6.35108 -0.896546 4.74221e-11 -1.08655e-09 1.66934e-09 7.02718e-11 -1.86389e-09 2.88988e-09 4.74262e-11 -1.08655e-09 1.66932e-09 7.73091 5.47488 0.417314 4.74242e-11 -1.08656e-09 1.66934e-09 2.90554 0.965183 0.102902 4.74281e-11 -1.08655e-09 1.66934e-09 10.2786 0.731801 0.0259123 4.7422e-11 -1.08655e-09 1.66934e-09 2.22167 -0.733487 -0.20892 -4.09512e-14 2.46451e-14 -1.44756e-13 2.69789 78.3122 -82.0536 22.4857 -15.989 -45.7889 1.23089 29.0924 -4.50777 -1.58839e-09 3.91685e-10 -7.74896e-10 -2.76206e-09 7.09479e-10 -1.29559e-09 -1.58839e-09 3.9169e-10 -7.74892e-10 -7.73091 5.47488 -0.417314 -1.58839e-09 3.91695e-10 -7.74894e-10 -2.90554 0.965183 -0.102902 -1.58839e-09 3.91691e-10 -7.74895e-10 -10.2786 0.731801 -0.0259123 -1.58839e-09 3.91693e-10 -7.74902e-10 -2.22167 -0.733487 0.20892 -2.03217e-16 0.0 -3.88251e-19 22.6358 -76.3506 22.3625 -0.539977 47.0765 0.724181 -2.09467 -2.09977 -16.1746 2.03217e-16 0.0 3.88251e-19 -7.75124 -31.5516 -7.1781 0.237267 38.4675 -1.40053 19.5174 -36.1776 27.8362
